<svg xmlns="http://www.w3.org/2000/svg" viewBox="0 0 1200 900" role="img" aria-labelledby="t d">
<title id="t">Les Délices de CANA — Restaurant</title><desc id="d">Logo doré et brun du restaurant Les Délices de CANA</desc>
<defs>
 <linearGradient id="gold" x1="0" y1="0" x2="1" y2="1"><stop stop-color="#FFD875"/><stop offset=".35" stop-color="#F0A72E"/><stop offset=".72" stop-color="#C96A12"/><stop offset="1" stop-color="#8D3510"/></linearGradient>
 <linearGradient id="brown" x1="0" y1="0" x2="1" y2="1"><stop stop-color="#6E1E0C"/><stop offset=".5" stop-color="#4B180B"/><stop offset="1" stop-color="#2D1008"/></linearGradient>
 <filter id="shadow"><feDropShadow dx="0" dy="9" stdDeviation="9" flood-color="#5B260F" flood-opacity=".18"/></filter>
</defs>
<g filter="url(#shadow)">
 <path d="M180 330 C330 260 460 254 600 274 C760 296 875 284 1030 325 C890 342 742 353 600 340 C440 325 315 316 180 330Z" fill="url(#brown)" stroke="url(#gold)" stroke-width="12"/>
 <path d="M205 327 C370 286 476 291 600 307 C752 327 865 318 1000 326" fill="none" stroke="#FFD76C" stroke-width="7"/>
 <path d="M394 285 C410 181 478 129 601 129 C720 129 791 187 808 286 C710 254 500 251 394 285Z" fill="url(#brown)" stroke="url(#gold)" stroke-width="11"/>
 <ellipse cx="600" cy="119" rx="58" ry="19" fill="url(#gold)" stroke="#7D2D0D" stroke-width="7"/>
 <path d="M625 93 C579 45 646 28 650 -26 C722 43 733 104 676 137" fill="none" stroke="url(#gold)" stroke-width="19"/>
 <path d="M676 126 C705 92 726 60 718 22" fill="none" stroke="#7A240B" stroke-width="12"/>
</g>
<text x="600" y="470" text-anchor="middle" fill="url(#brown)" stroke="#6D260E" stroke-width="2" paint-order="stroke" font-family="Georgia,'Times New Roman',serif" font-size="105" letter-spacing="-4">Les Délices de</text>
<text x="600" y="660" text-anchor="middle" fill="url(#brown)" stroke="url(#gold)" stroke-width="4" paint-order="stroke" font-family="Georgia,'Times New Roman',serif" font-weight="700" font-size="210" letter-spacing="4">CANA</text>
<path d="M145 716 H385 M815 716 H1055" stroke="url(#gold)" stroke-width="7"/>
<text x="600" y="748" text-anchor="middle" fill="#55200E" font-family="Arial,Helvetica,sans-serif" font-weight="800" font-size="39" letter-spacing="18">RESTAURANT</text>
<path d="M540 820 C505 786 466 792 456 824 C493 846 521 842 540 820Z M600 813 C570 778 573 758 600 738 C627 758 630 778 600 813Z M660 820 C695 786 734 792 744 824 C707 846 679 842 660 820Z" fill="url(#gold)" stroke="#8D3510" stroke-width="5"/>
</svg>